<svg xmlns:dc="http://purl.org/dc/elements/1.1/" xmlns:cc="http://creativecommons.org/ns#" xmlns:rdf="http://www.w3.org/1999/02/22-rdf-syntax-ns#" xmlns:svg="http://www.w3.org/2000/svg" xmlns="http://www.w3.org/2000/svg" xmlns:sodipodi="http://sodipodi.sourceforge.net/DTD/sodipodi-0.dtd" xmlns:inkscape="http://www.inkscape.org/namespaces/inkscape" viewBox="0 0 48 60.00000125" version="1.1" x="0px" y="0px"><g transform="translate(0,-1004.3622)"><path style="" d="M 24 0 A 24 24 0 0 0 0 24 A 24 24 0 0 0 24 48 A 24 24 0 0 0 48 24 A 24 24 0 0 0 24 0 z M 11 15 L 21 15 C 22.099358 15 23 15.9007 23 17 L 23 23 C 23 24.0994 22.099358 25 21 25 L 15.779297 25 L 12.849609 27.859375 A 0.50005 0.50005 0 0 1 12 27.5 L 12 25 L 11 25 C 9.9006421 25 9 24.0994 9 23 L 9 17 C 9 15.9007 9.9006421 15 11 15 z M 11 16 C 10.437339 16 10 16.4374 10 17 L 10 23 C 10 23.5627 10.437339 24 11 24 L 12.5 24 A 0.50005 0.50005 0 0 1 13 24.5 L 13 26.314453 L 15.226562 24.142578 A 0.50005 0.50005 0 0 1 15.574219 24 L 21 24 C 21.562662 24 22 23.5627 22 23 L 22 17 C 22 16.4374 21.562662 16 21 16 L 11 16 z M 27.982422 16.501953 A 0.50005 0.50005 0 0 1 28.341797 16.650391 L 29.859375 18.144531 A 0.50005 0.50005 0 0 1 29.859375 18.857422 L 28.341797 20.351562 A 0.50005 0.50005 0 1 1 27.640625 19.640625 L 28.287109 19.001953 L 24.507812 19.001953 A 0.50064426 0.50064426 0 1 1 24.457031 18.001953 A 0.50004997 0.50004997 0 0 1 24.507812 18.001953 L 28.287109 18.001953 L 27.640625 17.363281 A 0.50005 0.50005 0 0 1 27.982422 16.501953 z M 14 19.5 A 0.5 0.5 0 0 1 14.5 20 A 0.5 0.5 0 0 1 14 20.5 A 0.5 0.5 0 0 1 13.5 20 A 0.5 0.5 0 0 1 14 19.5 z M 16 19.5 A 0.5 0.5 0 0 1 16.5 20 A 0.5 0.5 0 0 1 16 20.5 A 0.5 0.5 0 0 1 15.5 20 A 0.5 0.5 0 0 1 16 19.5 z M 18 19.5 A 0.5 0.5 0 0 1 18.5 20 A 0.5 0.5 0 0 1 18 20.5 A 0.5 0.5 0 0 1 17.5 20 A 0.5 0.5 0 0 1 18 19.5 z M 27 22 L 37 22 C 38.099358 22 39 22.9007 39 24 L 39 30 C 39 31.0994 38.099358 32 37 32 L 36 32 L 36 34.5 A 0.50005 0.50005 0 0 1 35.150391 34.859375 L 32.220703 32 L 27 32 C 25.900642 32 25 31.0994 25 30 L 25 24 C 25 22.9007 25.900642 22 27 22 z M 27 23 C 26.437338 23 26 23.4374 26 24 L 26 30 C 26 30.5627 26.437338 31 27 31 L 32.425781 31 A 0.50005 0.50005 0 0 1 32.773438 31.142578 L 35 33.314453 L 35 31.5 A 0.50005 0.50005 0 0 1 35.5 31 L 37 31 C 37.562662 31 38 30.5627 38 30 L 38 24 C 38 23.4374 37.562662 23 37 23 L 27 23 z M 20.005859 26.5 A 0.50005 0.50005 0 0 1 20.363281 27.359375 L 19.716797 27.998047 L 23.496094 27.998047 A 0.50004997 0.50004997 0 1 1 23.496094 28.998047 L 19.712891 28.998047 L 20.363281 29.638672 A 0.50005 0.50005 0 1 1 19.662109 30.349609 L 18.144531 28.855469 A 0.50005 0.50005 0 0 1 18.144531 28.142578 L 19.662109 26.648438 A 0.50005 0.50005 0 0 1 20.005859 26.5 z M 30 26.5 A 0.5 0.5 0 0 1 30.5 27 A 0.5 0.5 0 0 1 30 27.5 A 0.5 0.5 0 0 1 29.5 27 A 0.5 0.5 0 0 1 30 26.5 z M 32 26.5 A 0.5 0.5 0 0 1 32.5 27 A 0.5 0.5 0 0 1 32 27.5 A 0.5 0.5 0 0 1 31.5 27 A 0.5 0.5 0 0 1 32 26.5 z M 34 26.5 A 0.5 0.5 0 0 1 34.5 27 A 0.5 0.5 0 0 1 34 27.5 A 0.5 0.5 0 0 1 33.5 27 A 0.5 0.5 0 0 1 34 26.5 z " transform="translate(0,1004.3622)" fill="#000000" fill-opacity="1" fill-rule="evenodd" stroke="none"/></g><text x="0" y="63.000001" fill="#000000" font-size="5px" font-weight="bold" font-family="'Helvetica Neue', Helvetica, Arial-Unicode, Arial, Sans-serif">Created by Chameleon Design</text><text x="0" y="68.000001" fill="#000000" font-size="5px" font-weight="bold" font-family="'Helvetica Neue', Helvetica, Arial-Unicode, Arial, Sans-serif">from the Noun Project</text></svg>