<svg xmlns:dc="http://purl.org/dc/elements/1.1/" xmlns:cc="http://creativecommons.org/ns#" xmlns:rdf="http://www.w3.org/1999/02/22-rdf-syntax-ns#" xmlns:svg="http://www.w3.org/2000/svg" xmlns="http://www.w3.org/2000/svg" xmlns:sodipodi="http://sodipodi.sourceforge.net/DTD/sodipodi-0.dtd" xmlns:inkscape="http://www.inkscape.org/namespaces/inkscape" viewBox="0 0 48 60.00000125" version="1.1" x="0px" y="0px"><g transform="translate(0,-1004.3622)"><path style="" d="M 24 0 A 24 24 0 0 0 0 24 A 24 24 0 0 0 24 48 A 24 24 0 0 0 48 24 A 24 24 0 0 0 24 0 z M 24 9.9980469 C 25.37479 9.9980469 26.5 11.123247 26.5 12.498047 C 26.5 13.701047 25.63828 14.711113 24.501953 14.945312 L 24.5 14.945312 L 24.5 19.046875 C 25.45295 19.142075 26.385439 19.4855 27.166016 20.125 L 30.044922 17.246094 C 29.406965 16.276994 29.512673 14.950209 30.363281 14.099609 C 31.335404 13.127509 32.926313 13.127509 33.898438 14.099609 C 34.870559 15.071809 34.870561 16.662666 33.898438 17.634766 C 33.047829 18.485366 31.723026 18.591025 30.753906 17.953125 L 30.751953 17.953125 L 27.873047 20.832031 C 28.511825 21.612431 28.855732 22.545047 28.951172 23.498047 L 33.050781 23.498047 C 33.283498 22.359847 34.29574 21.498047 35.5 21.498047 C 36.87479 21.498047 38 22.623247 38 23.998047 C 38 25.372847 36.87479 26.498047 35.5 26.498047 C 34.297059 26.498047 33.284949 25.6363 33.050781 24.5 L 28.951172 24.5 C 28.856179 25.454 28.512465 26.386669 27.873047 27.167969 L 30.751953 30.046875 C 31.721073 29.408975 33.047829 29.514634 33.898438 30.365234 C 34.870559 31.337334 34.870559 32.928291 33.898438 33.900391 C 32.926313 34.872591 31.335404 34.872591 30.363281 33.900391 C 29.512673 33.049891 29.406965 31.724959 30.044922 30.755859 L 27.166016 27.876953 C 26.385631 28.515753 25.452883 28.860078 24.5 28.955078 L 24.5 33.052734 C 25.636374 33.286834 26.5 34.299053 26.5 35.501953 C 26.5 36.876753 25.37479 38.001953 24 38.001953 C 22.62521 38.001953 21.5 36.876753 21.5 35.501953 C 21.5 34.299053 22.36172 33.286934 23.498047 33.052734 L 23.5 33.052734 L 23.5 28.955078 C 22.546528 28.860078 21.612993 28.517906 20.832031 27.878906 L 17.955078 30.755859 C 18.593034 31.724959 18.485374 33.049791 17.634766 33.900391 C 16.662642 34.872591 15.071733 34.872591 14.099609 33.900391 C 13.127486 32.928291 13.127486 31.337334 14.099609 30.365234 C 14.951242 29.513634 16.278619 29.406375 17.248047 30.046875 L 20.126953 27.167969 C 19.486732 26.386569 19.141825 25.4543 19.046875 24.5 L 14.949219 24.5 C 14.71505 25.6364 13.702941 26.5 12.5 26.5 C 11.12521 26.5 10 25.3748 10 24 C 10 22.6252 11.12521 21.5 12.5 21.5 C 13.70426 21.5 14.716502 22.3618 14.949219 23.5 L 19.048828 23.5 C 19.144381 22.547 19.487907 21.614584 20.126953 20.833984 L 17.246094 17.953125 C 16.276974 18.591125 14.950217 18.487319 14.099609 17.636719 C 13.127486 16.664619 13.127486 15.073763 14.099609 14.101562 C 15.071733 13.129463 16.662642 13.129463 17.634766 14.101562 C 18.485374 14.952162 18.593034 16.276994 17.955078 17.246094 L 20.833984 20.126953 C 21.61484 19.487553 22.546696 19.143828 23.5 19.048828 L 23.5 14.947266 C 22.363626 14.713066 21.5 13.703 21.5 12.5 C 21.5 11.1252 22.62521 10 24 10 L 24 9.9980469 z M 24 11 C 23.165651 11 22.5 11.6657 22.5 12.5 C 22.5 13.3344 23.165651 14 24 14 C 24.834349 14 25.5 13.3344 25.5 12.5 C 25.5 11.6657 24.834349 11 24 11 z M 15.867188 14.365234 C 15.484352 14.365234 15.101628 14.513594 14.806641 14.808594 C 14.216666 15.398494 14.216666 16.339687 14.806641 16.929688 C 15.396615 17.519587 16.33776 17.519587 16.927734 16.929688 C 17.517709 16.339688 17.517709 15.398494 16.927734 14.808594 C 16.632747 14.513594 16.250025 14.365234 15.867188 14.365234 z M 32.130859 14.365234 C 31.748023 14.365234 31.365301 14.513594 31.070312 14.808594 C 30.480338 15.398494 30.480338 16.339687 31.070312 16.929688 C 31.660287 17.519587 32.601431 17.519587 33.191406 16.929688 C 33.78138 16.339688 33.78138 15.398494 33.191406 14.808594 C 32.896419 14.513594 32.513696 14.365234 32.130859 14.365234 z M 24 19.992188 C 22.976706 19.992387 21.95367 20.384769 21.169922 21.167969 C 19.602292 22.735669 19.6004 25.262378 21.167969 26.830078 C 22.735559 28.397878 25.262494 28.397778 26.830078 26.830078 C 28.397669 25.262378 28.397669 22.735669 26.830078 21.167969 C 26.046286 20.384069 25.023294 19.991988 24 19.992188 z M 12.5 22.5 C 11.665651 22.5 11 23.1657 11 24 C 11 24.8344 11.665651 25.5 12.5 25.5 C 13.334349 25.5 14 24.8344 14 24 C 14 23.1657 13.334349 22.5 12.5 22.5 z M 35.5 22.5 C 34.665651 22.5 34 23.1657 34 24 C 34 24.8344 34.665651 25.5 35.5 25.5 C 36.334349 25.5 37 24.8344 37 24 C 37 23.1657 36.334349 22.5 35.5 22.5 z M 15.867188 30.628906 C 15.484352 30.628906 15.101628 30.777266 14.806641 31.072266 C 14.216666 31.662266 14.216666 32.603459 14.806641 33.193359 C 15.396615 33.783359 16.33776 33.783359 16.927734 33.193359 C 17.517709 32.603459 17.517709 31.662266 16.927734 31.072266 C 16.632747 30.777266 16.250024 30.628906 15.867188 30.628906 z M 32.130859 30.628906 C 31.748023 30.628906 31.365299 30.777266 31.070312 31.072266 C 30.480337 31.662266 30.480338 32.603459 31.070312 33.193359 C 31.660287 33.783359 32.601431 33.783359 33.191406 33.193359 C 33.78138 32.603459 33.78138 31.662266 33.191406 31.072266 C 32.896419 30.777266 32.513696 30.628906 32.130859 30.628906 z M 24 34 C 23.165651 34 22.5 34.6657 22.5 35.5 C 22.5 36.3344 23.165651 37 24 37 C 24.834349 37 25.5 36.3344 25.5 35.5 C 25.5 34.6657 24.834349 34 24 34 z " transform="translate(0,1004.3622)" fill="#000000" fill-opacity="1" fill-rule="evenodd" stroke="none"/></g><text x="0" y="63.000001" fill="#000000" font-size="5px" font-weight="bold" font-family="'Helvetica Neue', Helvetica, Arial-Unicode, Arial, Sans-serif">Created by Chameleon Design</text><text x="0" y="68.000001" fill="#000000" font-size="5px" font-weight="bold" font-family="'Helvetica Neue', Helvetica, Arial-Unicode, Arial, Sans-serif">from the Noun Project</text></svg>