<svg xmlns:dc="http://purl.org/dc/elements/1.1/" xmlns:cc="http://creativecommons.org/ns#" xmlns:rdf="http://www.w3.org/1999/02/22-rdf-syntax-ns#" xmlns:svg="http://www.w3.org/2000/svg" xmlns="http://www.w3.org/2000/svg" xmlns:sodipodi="http://sodipodi.sourceforge.net/DTD/sodipodi-0.dtd" xmlns:inkscape="http://www.inkscape.org/namespaces/inkscape" viewBox="0 0 48 60.00000125" version="1.1" x="0px" y="0px"><g transform="translate(0,-1004.3622)"><path style="" d="M 24 0 A 24 24 0 0 0 0 24 A 24 24 0 0 0 24 48 A 24 24 0 0 0 48 24 A 24 24 0 0 0 24 0 z M 20.480469 9.3984375 C 23.502369 9.3984375 25.960968 11.867638 25.960938 14.898438 C 25.960909 17.929237 23.502327 20.398438 20.480469 20.398438 C 17.45861 20.398438 15.000029 17.929237 15 14.898438 C 14.999969 11.867638 17.458568 9.3984375 20.480469 9.3984375 z M 20.480469 10.398438 C 18.001193 10.398438 15.999974 12.405938 16 14.898438 C 16.000024 17.390937 18.001229 19.398438 20.480469 19.398438 C 22.959709 19.398438 24.960914 17.390937 24.960938 14.898438 C 24.960962 12.405938 22.959744 10.398438 20.480469 10.398438 z M 33.603516 15.128906 L 35.103516 15.128906 C 35.379647 15.128906 35.603488 15.352806 35.603516 15.628906 L 35.603516 16.138672 C 35.748059 16.188672 35.887767 16.247453 36.025391 16.314453 L 36.386719 15.953125 C 36.581984 15.757925 36.898485 15.757925 37.09375 15.953125 L 38.154297 17.013672 C 38.34946 17.208972 38.34946 17.525403 38.154297 17.720703 L 37.792969 18.082031 C 37.859228 18.219631 37.917217 18.359506 37.966797 18.503906 L 38.478516 18.503906 C 38.754647 18.503906 38.978488 18.727806 38.978516 19.003906 L 38.978516 20.503906 C 38.978488 20.780006 38.754647 21.003906 38.478516 21.003906 L 37.96875 21.003906 C 37.918737 21.148406 37.859709 21.288081 37.792969 21.425781 L 38.154297 21.787109 C 38.34946 21.982409 38.34946 22.298841 38.154297 22.494141 L 37.09375 23.554688 C 36.898485 23.749888 36.581984 23.749888 36.386719 23.554688 L 36.025391 23.193359 C 35.887823 23.259659 35.747934 23.317188 35.603516 23.367188 L 35.603516 23.878906 C 35.603488 24.155006 35.379647 24.378906 35.103516 24.378906 L 33.603516 24.378906 C 33.327385 24.378906 33.103544 24.155006 33.103516 23.878906 L 33.103516 23.367188 C 32.95921 23.317288 32.819054 23.260359 32.681641 23.193359 L 32.320312 23.554688 C 32.125048 23.749888 31.808546 23.749888 31.613281 23.554688 L 30.552734 22.494141 C 30.357571 22.298841 30.357571 21.982409 30.552734 21.787109 L 30.912109 21.425781 C 30.845983 21.288381 30.789734 21.148106 30.740234 21.003906 L 30.228516 21.003906 C 29.952385 21.003906 29.728544 20.780006 29.728516 20.503906 L 29.728516 19.003906 C 29.728544 18.727806 29.952385 18.503906 30.228516 18.503906 L 30.738281 18.503906 C 30.788297 18.359406 30.847323 18.219631 30.914062 18.082031 L 30.552734 17.720703 C 30.357571 17.525403 30.357571 17.208972 30.552734 17.013672 L 31.613281 15.953125 C 31.808546 15.757925 32.125048 15.757925 32.320312 15.953125 L 32.681641 16.3125 C 32.818996 16.2464 32.959334 16.190625 33.103516 16.140625 L 33.103516 15.628906 C 33.103544 15.352806 33.327385 15.128906 33.603516 15.128906 z M 34.103516 16.128906 L 34.103516 16.466797 C 34.102755 16.700197 33.940634 16.902125 33.712891 16.953125 C 33.397468 17.024025 33.096575 17.149212 32.822266 17.320312 C 32.624343 17.443612 32.367473 17.413447 32.203125 17.248047 L 31.966797 17.011719 L 31.613281 17.365234 L 31.851562 17.603516 C 32.016412 17.768316 32.045584 18.025156 31.921875 18.222656 C 31.750023 18.496456 31.626517 18.798181 31.554688 19.113281 C 31.502638 19.340981 31.29994 19.502353 31.066406 19.501953 L 30.728516 19.501953 L 30.728516 20.001953 L 31.068359 20.001953 C 31.30179 20.002753 31.503637 20.164778 31.554688 20.392578 C 31.625606 20.708078 31.750765 21.008903 31.921875 21.283203 C 32.044563 21.480303 32.015439 21.735891 31.851562 21.900391 L 31.613281 22.138672 L 31.966797 22.492188 L 32.205078 22.253906 C 32.37042 22.089906 32.627196 22.061247 32.824219 22.185547 C 33.097994 22.357447 33.399686 22.480734 33.714844 22.552734 C 33.94254 22.604734 34.103895 22.807416 34.103516 23.041016 L 34.103516 23.378906 L 34.603516 23.378906 L 34.603516 23.039062 C 34.60339 22.804963 34.765705 22.601781 34.994141 22.550781 C 35.309567 22.479881 35.610454 22.356647 35.884766 22.185547 C 36.082239 22.061747 36.33906 22.091059 36.503906 22.255859 L 36.740234 22.494141 L 37.09375 22.140625 L 36.855469 21.902344 C 36.690619 21.737544 36.661447 21.480703 36.785156 21.283203 C 36.957014 21.009403 37.080524 20.707678 37.152344 20.392578 C 37.204353 20.164878 37.407061 20.003506 37.640625 20.003906 L 37.978516 20.003906 L 37.978516 19.503906 L 37.638672 19.503906 C 37.405271 19.503206 37.203434 19.340981 37.152344 19.113281 C 37.081426 18.797781 36.956266 18.497056 36.785156 18.222656 C 36.661447 18.025156 36.690615 17.768316 36.855469 17.603516 L 37.09375 17.367188 L 36.740234 17.013672 L 36.501953 17.251953 C 36.337107 17.416953 36.080286 17.446066 35.882812 17.322266 C 35.609043 17.150366 35.30735 17.027078 34.992188 16.955078 C 34.764491 16.903078 34.603137 16.700397 34.603516 16.466797 L 34.603516 16.128906 L 34.103516 16.128906 z M 34.353516 18.107422 C 35.25643 18.107422 36 18.850906 36 19.753906 C 36 20.656806 35.256695 21.400391 34.353516 21.400391 C 33.450332 21.400391 32.707031 20.656806 32.707031 19.753906 C 32.707031 18.850906 33.450596 18.107422 34.353516 18.107422 z M 34.353516 19.107422 C 33.996776 19.107422 33.707031 19.397106 33.707031 19.753906 C 33.707031 20.110606 33.99704 20.400391 34.353516 20.400391 C 34.709977 20.400391 35 20.110606 35 19.753906 C 35 19.397106 34.710242 19.107422 34.353516 19.107422 z M 17.5 21.398438 L 23.5 21.398438 C 25.465339 21.398438 27.24587 22.159938 28.582031 23.398438 L 28.408203 23.398438 C 28.049025 23.398438 27.72872 23.537866 27.478516 23.759766 C 26.380829 22.908366 25.004813 22.398438 23.5 22.398438 L 17.5 22.398438 C 13.891267 22.398438 11 25.301134 11 28.927734 L 11 32.943359 L 14 32.943359 L 14 28.921875 C 13.99563 28.645675 14.216007 28.414062 14.492188 28.414062 C 14.774489 28.409662 15.0045 28.639575 15 28.921875 L 15 32.943359 L 22.380859 32.943359 C 22.632143 33.215159 22.984521 33.3985 23.373047 33.4375 C 23.248003 33.5904 23.159229 33.762459 23.099609 33.943359 L 14.646484 33.943359 L 14.353516 33.943359 L 10.5 33.943359 C 10.223869 33.943359 10.000028 33.719559 10 33.443359 L 10 28.927734 C 10 24.766634 13.352371 21.398438 17.5 21.398438 z M 28.408203 24.400391 L 30.589844 24.400391 C 30.865975 24.400391 31.089816 24.624291 31.089844 24.900391 L 31.089844 25.791016 C 31.400221 25.887816 31.69832 26.013162 31.986328 26.164062 L 32.617188 25.533203 C 32.812452 25.338003 33.128954 25.338003 33.324219 25.533203 L 34.867188 27.076172 C 35.062351 27.271472 35.062351 27.587903 34.867188 27.783203 L 34.238281 28.412109 C 34.387988 28.700009 34.509669 28.998594 34.605469 29.308594 L 35.5 29.308594 C 35.776131 29.308594 35.999972 29.532494 36 29.808594 L 36 31.990234 C 35.999972 32.266334 35.776131 32.490234 35.5 32.490234 L 34.607422 32.490234 C 34.510683 32.800534 34.387088 33.098819 34.236328 33.386719 L 34.867188 34.017578 C 35.062351 34.212878 35.062351 34.529309 34.867188 34.724609 L 33.324219 36.267578 C 33.128954 36.462778 32.812452 36.462778 32.617188 36.267578 L 31.988281 35.638672 C 31.700144 35.788472 31.400153 35.909859 31.089844 36.005859 L 31.089844 36.900391 C 31.089816 37.176491 30.865975 37.400391 30.589844 37.400391 L 28.408203 37.400391 C 28.132072 37.400391 27.908231 37.176491 27.908203 36.900391 L 27.908203 36.007812 C 27.597942 35.911112 27.299632 35.787519 27.011719 35.636719 L 26.382812 36.267578 C 26.187547 36.462778 25.871046 36.462778 25.675781 36.267578 L 24.132812 34.724609 C 23.937649 34.529309 23.937649 34.212878 24.132812 34.017578 L 24.759766 33.388672 C 24.609902 33.100472 24.488428 32.800534 24.392578 32.490234 L 23.5 32.490234 C 23.223869 32.490234 23.000028 32.266334 23 31.990234 L 23 29.808594 C 23.000028 29.532494 23.223869 29.308594 23.5 29.308594 L 24.390625 29.308594 C 24.487318 28.998494 24.611056 28.699909 24.761719 28.412109 L 24.132812 27.783203 C 23.937649 27.587903 23.937649 27.271472 24.132812 27.076172 L 25.675781 25.533203 C 25.871046 25.338003 26.187548 25.338003 26.382812 25.533203 L 27.011719 26.162109 C 27.299818 26.012209 27.597933 25.888969 27.908203 25.792969 L 27.908203 24.900391 C 27.908231 24.624291 28.132072 24.400391 28.408203 24.400391 z M 28.908203 25.400391 L 28.908203 26.121094 C 28.908376 26.355194 28.746051 26.558375 28.517578 26.609375 C 28.033847 26.718075 27.573023 26.907522 27.152344 27.169922 C 26.954421 27.293222 26.697551 27.263056 26.533203 27.097656 L 26.029297 26.59375 L 25.193359 27.429688 L 25.701172 27.935547 C 25.865442 28.100847 25.893798 28.357587 25.769531 28.554688 C 25.505987 28.974487 25.315233 29.436622 25.205078 29.919922 C 25.153232 30.146922 24.951583 30.308094 24.71875 30.308594 L 24 30.308594 L 24 31.490234 L 24.720703 31.490234 C 24.954835 31.490034 25.157734 31.652359 25.208984 31.880859 C 25.31774 32.364559 25.507123 32.827447 25.769531 33.248047 C 25.891714 33.445547 25.861781 33.701234 25.697266 33.865234 L 25.193359 34.371094 L 26.029297 35.207031 L 26.535156 34.699219 C 26.700001 34.534219 26.956824 34.505106 27.154297 34.628906 C 27.574156 34.892406 28.036207 35.083259 28.519531 35.193359 C 28.747227 35.245359 28.908582 35.448041 28.908203 35.681641 L 28.908203 36.400391 L 30.089844 36.400391 L 30.089844 35.679688 C 30.089671 35.445588 30.251997 35.242406 30.480469 35.191406 C 30.964201 35.082606 31.426977 34.893159 31.847656 34.630859 C 32.044692 34.508059 32.300306 34.537372 32.464844 34.701172 L 32.970703 35.207031 L 33.806641 34.371094 L 33.298828 33.863281 C 33.133918 33.698481 33.104753 33.441741 33.228516 33.244141 C 33.492069 32.824341 33.682824 32.362206 33.792969 31.878906 C 33.844978 31.651206 34.047686 31.489834 34.28125 31.490234 L 35 31.490234 L 35 30.308594 L 34.279297 30.308594 C 34.045165 30.308794 33.842266 30.146469 33.791016 29.917969 C 33.68225 29.434169 33.492867 28.973434 33.230469 28.552734 C 33.10676 28.355234 33.135927 28.098394 33.300781 27.933594 L 33.806641 27.429688 L 32.970703 26.59375 L 32.462891 27.101562 C 32.297549 27.265562 32.040773 27.294222 31.84375 27.169922 C 31.423898 26.906422 30.961845 26.715569 30.478516 26.605469 C 30.251513 26.553569 30.090351 26.352041 30.089844 26.119141 L 30.089844 25.400391 L 28.908203 25.400391 z M 29.5 28.400391 C 30.872104 28.400391 31.998047 29.526237 31.998047 30.898438 C 31.998047 32.270538 30.872468 33.400391 29.5 33.400391 C 28.127532 33.400391 27 32.270538 27 30.898438 C 27 29.526237 28.127896 28.400391 29.5 28.400391 z M 29.5 29.400391 C 28.674004 29.400391 28 30.072338 28 30.898438 C 28 31.724338 28.674368 32.400391 29.5 32.400391 C 30.325632 32.400391 30.998047 31.724338 30.998047 30.898438 C 30.998047 30.072338 30.325996 29.400391 29.5 29.400391 z " transform="translate(0,1004.3622)" fill="#000000" fill-opacity="1" stroke="none"/></g><text x="0" y="63.000001" fill="#000000" font-size="5px" font-weight="bold" font-family="'Helvetica Neue', Helvetica, Arial-Unicode, Arial, Sans-serif">Created by Chameleon Design</text><text x="0" y="68.000001" fill="#000000" font-size="5px" font-weight="bold" font-family="'Helvetica Neue', Helvetica, Arial-Unicode, Arial, Sans-serif">from the Noun Project</text></svg>