<svg xmlns="http://www.w3.org/2000/svg" xmlns:xlink="http://www.w3.org/1999/xlink" viewBox="0 0 100 125" version="1.1" x="0px" y="0px"><title>Face man question</title><desc>Created with Sketch.</desc><g stroke="none" stroke-width="1" fill="none" fill-rule="evenodd"><g fill="#000000" fill-rule="nonzero"><path d="M62.5382948,37.8779331 C62.238314,37.8371172 61.9347586,37.8020945 61.6269077,37.7728096 C61.3325395,37.7447081 61.0181882,37.7238829 60.6901331,37.7107489 C60.324943,37.6971814 59.934626,37.684635 59.5194241,37.6731225 C59.1159087,37.6619654 58.7136157,37.6563881 58.3125388,37.6563881 L53.0818753,37.6563881 C52.7114881,37.6563881 52.3296952,37.6704678 51.9368914,37.6987421 C51.573403,37.7249764 51.2277689,37.7690993 50.9007717,37.8305155 C50.5743312,37.8920062 50.2295467,37.9786022 49.8668109,38.0909367 C49.4785889,38.211164 49.0780029,38.3518054 48.6690341,38.5115282 C48.2744672,38.666548 47.9123047,38.829723 47.5861778,38.9985904 C47.2277755,39.1851471 46.9546575,39.3356049 46.7758599,39.4437113 C46.5835766,39.5602726 46.3992415,39.6790789 46.2186319,39.8029533 C46.0256408,39.934572 45.7357915,40.1387525 45.3531867,40.4127995 C44.9798998,40.6801724 44.627976,40.9426706 44.3026193,41.1961501 C43.985832,41.444768 43.6787045,41.7030263 43.3835907,41.9688019 C43.0982936,42.2266646 42.8363422,42.4869806 42.594994,42.7523959 C42.3625692,43.0069205 42.1532627,43.265397 41.9690858,43.5244881 C41.76972,43.8064241 41.5733619,44.1106475 41.3803026,44.4371453 C41.1939893,44.7522345 41.0269575,45.07172 40.8790502,45.3957547 C40.7166546,45.7515305 40.5614926,46.1114335 40.4129831,46.4769051 C40.2643572,46.8416544 40.1545289,47.123384 40.0826337,47.3237199 C40.0122003,47.5171058 39.9104802,47.8220397 39.7802554,48.2315527 C39.6536023,48.629834 39.5445817,49.0113248 39.4533436,49.3748807 C39.3591441,49.7512444 39.2678835,50.1526244 39.1798191,50.5781455 C39.0940312,50.9936545 39.0251385,51.3886254 38.9730888,51.7622831 C38.9194592,52.1482864 38.8826325,52.4565594 38.863336,52.6750718 C38.8428268,52.9214834 38.818524,53.2558777 38.790322,53.6807434 C38.7629242,54.0770646 38.7495376,54.3812238 38.7495376,54.5846531 L38.7495376,56.3693458 C38.7495376,56.7415989 38.7782913,57.0876048 38.8340091,57.4040166 C38.8943727,57.7421287 38.9834426,58.090985 39.1017962,58.4506569 C39.2224653,58.8173653 39.3652933,59.1755089 39.5280313,59.5204589 C39.7042389,59.8906951 39.8924286,60.2496124 40.0925747,60.5972935 C40.2907728,60.9415906 40.4485407,61.1957813 40.5568715,61.3492313 C40.7065257,61.5612156 40.8560396,61.7774366 41.0090426,62.0032643 C41.1417469,62.2007444 41.2747294,62.3923709 41.4054635,62.5746556 C41.5286954,62.7455573 41.6575494,62.913287 41.792055,63.077878 C41.9143065,63.2274738 42.1174827,63.4517628 42.3925892,63.7386701 C42.677778,64.0349434 42.9013157,64.2571841 43.0603339,64.4035287 C43.2141574,64.545988 43.3708302,64.6812913 43.530359,64.8095159 C43.6735827,64.9246349 43.9308026,65.1083667 44.2912327,65.3502258 C44.6463283,65.5892123 45.0237817,65.8212132 45.4237168,66.046115 C45.8186747,66.2682179 46.222214,66.4726482 46.6379238,66.6610761 C47.0721747,66.8588981 47.3959544,66.9992967 47.5936985,67.0767156 C47.8176275,67.1639552 48.0487503,67.2499624 48.2799975,67.3322168 C48.5102692,67.4131575 48.7370876,67.4876457 48.9630242,67.5565049 C49.196411,67.6279698 49.4517726,67.7025191 49.7355492,67.781916 C50.0362771,67.8671353 50.3340575,67.9534752 50.6243642,68.0395997 C50.883599,68.115855 51.1649314,68.1923718 51.4681024,68.2689789 C51.7935845,68.3512238 52.0834105,68.4238773 52.3452819,68.4888685 C52.6055171,68.5545137 52.9087021,68.6317869 53.2566953,68.721163 C53.5965895,68.8087603 53.8931296,68.8846393 54.1461404,68.9487576 C54.3814733,69.0083959 54.6475901,69.071317 54.9455611,69.1376619 C55.4094864,69.2412092 55.4094864,69.2412092 55.8448563,69.3378535 C56.1134249,69.3963967 56.4084333,69.455061 56.730771,69.5139094 C57.0668076,69.5754707 57.3634788,69.6285069 57.6284962,69.67438 C57.8431848,69.7123923 58.0775382,69.7450173 58.3376484,69.7725957 C58.6262788,69.8040827 58.8949565,69.8308716 59.1510381,69.8536581 C59.398441,69.8765559 59.6605098,69.8975711 59.9371286,69.9166655 C60.198426,69.9347023 60.448453,69.9464861 60.6787908,69.951918 C60.9362791,69.9569629 61.1943713,69.9594858 61.4530696,69.9594858 L62.663427,69.9594858 C63.1366634,69.9594858 63.4772591,69.9486187 63.6503061,69.9319272 C63.8607193,69.9106641 64.2046228,69.8614593 64.6706894,69.7845238 C65.1244541,69.7104017 65.544151,69.6274501 65.9353173,69.5346835 C66.3464006,69.4384514 66.7388241,69.3390515 67.115951,69.2356211 C67.4363407,69.1483428 67.7488302,69.043187 68.0518564,68.9208226 C68.3653209,68.793845 68.651839,68.6605127 68.9089171,68.5227762 C69.1559642,68.3899251 69.3914153,68.2425552 69.6194313,68.077712 C69.8809061,67.8896224 70.1254969,67.7022332 70.3500142,67.5183259 C70.5531621,67.3511505 70.7443604,67.1745428 70.9234436,66.9887311 C71.1128396,66.7920799 71.291039,66.5895284 71.4581714,66.3809791 C71.6113374,66.1898572 71.7591578,65.9776203 71.89995,65.7458578 C72.0401576,65.5143551 72.1679871,65.2675824 72.2812834,65.0096508 C72.4062589,64.7227388 72.5237142,64.4197145 72.6334647,64.1005828 C72.7381303,63.7962369 72.8269498,63.4833117 72.9008996,63.1570749 C72.9826442,62.8013567 73.0421496,62.5210183 73.080501,62.3117287 C73.1192841,62.106781 73.1693637,61.8058384 73.2302774,61.4098298 C73.2922856,61.0131109 73.3479113,60.6261309 73.3970943,60.249446 C73.4458358,59.8751243 73.4799732,59.5823479 73.4999748,59.3681426 C73.5204416,59.1593486 73.5365962,58.9506 73.5484408,58.7418863 C73.5616741,58.5087048 73.5825647,58.1637714 73.6114219,57.7020541 C73.6398517,57.2652918 73.6567133,56.9404828 73.6622389,56.7270647 C73.6693945,56.4959033 73.6806861,56.1492621 73.6961274,55.6866708 C73.71139,55.229433 73.7219291,54.8810862 73.727919,54.6356495 C73.7345996,54.4068452 73.7379306,54.185156 73.7379306,53.9706167 L73.7379306,51.311919 C73.7379306,51.1379231 73.7200297,50.8719832 73.6822642,50.5207898 C73.6434488,50.1495867 73.6075476,49.8620802 73.5771757,49.6720544 C73.5456325,49.4809916 73.4912723,49.2190913 73.4144305,48.8917988 C73.3431228,48.5880778 73.2482925,48.2655331 73.1300046,47.9258612 C73.0079468,47.5763182 72.8734444,47.2360854 72.7272255,46.9066397 C72.572882,46.5598871 72.4126613,46.2215915 72.2494453,45.8973914 C72.0933062,45.5902561 71.9101578,45.2685995 71.6967138,44.9278574 C71.4873731,44.5910483 71.275662,44.2802129 71.0603769,43.9932404 C70.8447827,43.7049202 70.6253847,43.4352611 70.4023683,43.1841771 C70.1964851,42.9523825 69.9762413,42.7342549 69.7385165,42.5269706 C69.4934675,42.312415 69.2623951,42.1294034 69.046774,41.9779766 C68.8598991,41.8467378 68.6694037,41.734926 68.4694336,41.6390185 C68.2529766,41.5344278 68.0317361,41.4443638 67.8112312,41.3705318 C67.5911541,41.297613 67.387486,41.2446115 67.1934143,41.2090415 C66.9878466,41.1706106 66.7942543,41.1455258 66.612689,41.1331606 C66.395073,41.1183402 66.1782568,41.1109408 65.9621397,41.1109408 L65.0539273,41.1109408 C64.7519958,41.1109408 64.4687615,41.1188254 64.2040333,41.1344179 L63.7419292,41.1615311 C62.6938671,41.2230247 61.7886928,40.5104579 61.7201656,39.5699686 C61.6678162,38.8515078 62.118859,38.2078742 62.8019732,37.9166067 C62.7174287,37.9032905 62.6295108,37.8903892 62.5382948,37.8779331 Z M70.2673906,38.6313594 C70.658021,38.8186905 71.0327145,39.0386179 71.3908856,39.2901549 C71.7203104,39.521504 72.0544269,39.7861276 72.3918781,40.0815922 C72.7423169,40.38715 73.0706737,40.7123516 73.3766596,41.0568474 C73.6655125,41.3820538 73.9461348,41.7269627 74.2171098,42.0893487 C74.4915987,42.4552347 74.7585801,42.8472183 75.0153402,43.2603403 C75.276592,43.677379 75.5081525,44.0840599 75.7127068,44.4864579 C75.9020965,44.8626158 76.0843069,45.2473414 76.2600564,45.6421873 C76.4425391,46.0533365 76.6089969,46.4744025 76.7599025,46.9065601 C76.913697,47.3481892 77.0392549,47.7752473 77.1362005,48.188168 C77.227612,48.577517 77.2952947,48.9036031 77.340828,49.1795265 C77.3826748,49.4411767 77.4249758,49.7799341 77.4686234,50.1974141 C77.5166482,50.6439312 77.5414031,51.011698 77.5414031,51.311919 L77.5414031,53.9706167 C77.5414031,54.2154086 77.5376248,54.4668729 77.530286,54.717599 C77.5242279,54.966584 77.5134391,55.3231829 77.4978948,55.7888603 C77.4825291,56.2491843 77.4713079,56.5936663 77.4644689,56.8139431 C77.4579218,57.067749 77.4392368,57.4276835 77.4086756,57.8971096 C77.3804054,58.3495161 77.3598251,58.6893263 77.3469909,58.9154759 C77.3327682,59.1660933 77.3133762,59.4166758 77.2895025,59.660053 C77.2661634,59.9102122 77.228023,60.2373201 77.1747952,60.6460949 C77.1221476,61.0493152 77.0628398,61.4619115 76.9974563,61.8801953 C76.9321969,62.3044878 76.8768219,62.6372521 76.8319678,62.874136 C76.7857031,63.1267912 76.7172412,63.4493248 76.6270274,63.8418667 C76.5293197,64.2729551 76.4095999,64.6947471 76.26781,65.1070427 C76.1311049,65.5045526 75.9831466,65.8862719 75.8217891,66.2566892 C75.6503051,66.6471195 75.4570314,67.0202312 75.2406183,67.3775572 C75.024732,67.7329386 74.79339,68.0650941 74.5460657,68.3737075 C74.3127079,68.6648934 74.0643497,68.9471914 73.8006854,69.2209557 C73.5252089,69.5067826 73.2317903,69.77781 72.9174864,70.0364524 C72.6286077,70.2730874 72.3222283,70.507815 72.0020176,70.7381492 C71.6410552,70.9991157 71.2615524,71.2366483 70.8613849,71.4518383 C70.4741557,71.6593105 70.0592234,71.8524009 69.6147001,72.0324663 C69.1614344,72.2155004 68.696641,72.3719081 68.2242301,72.5005958 C67.7993059,72.6171386 67.3563873,72.7293288 66.9013088,72.8358508 C66.4168597,72.950751 65.9004995,73.0528077 65.3553456,73.1418552 C64.81314,73.2313627 64.3916095,73.2916743 64.0666165,73.3244953 C63.7205243,73.3579198 63.2613243,73.3725711 62.663427,73.3725711 L61.4530696,73.3725711 C61.1667221,73.3725711 60.8809532,73.3697777 60.587468,73.3640112 C60.2834271,73.3568627 59.96945,73.3420648 59.6454155,73.3196975 C59.3367024,73.2983877 59.0418764,73.2747457 58.7683882,73.2494199 C58.4908155,73.224736 58.1943044,73.1951719 57.8850825,73.1614286 C57.5368347,73.1245187 57.2059992,73.0784621 56.9002936,73.0243183 C56.62879,72.9773391 56.3188014,72.9219221 55.9712355,72.8582483 C55.6050819,72.7914009 55.2638084,72.7235365 54.9399901,72.6529371 C54.4937533,72.5538961 54.4937533,72.5538961 54.0279883,72.4499379 C53.6939745,72.3755686 53.3889779,72.3034548 53.1124417,72.2333746 C52.8535832,72.1677744 52.5517577,72.090543 52.2084628,72.0020685 C51.8675512,71.9145119 51.5700009,71.8386748 51.3238301,71.7765612 C51.0636296,71.7120007 50.7681237,71.6379235 50.4371808,71.5542987 C50.083927,71.4650363 49.7514904,71.3746203 49.4350848,71.2815422 C49.1564354,71.1988814 48.8748083,71.1172251 48.5968921,71.0384579 C48.288649,70.9522288 48.0013344,70.8683513 47.7372976,70.7874992 C47.4582473,70.7024548 47.1767512,70.6100101 46.8857259,70.5077 C46.6097921,70.4095681 46.3408945,70.3095037 46.0759017,70.2062633 C45.7933338,70.0956393 45.4109236,69.9298171 44.9196714,69.7060244 C44.4029886,69.4718335 43.8977231,69.2158694 43.4040192,68.9382371 C42.9152925,68.6634037 42.4502945,68.3775938 42.0113196,68.0821526 C41.5709685,67.7866668 41.2357471,67.5472186 40.9926992,67.3518639 C40.7659563,67.1696146 40.5446517,66.9784951 40.3330251,66.7824906 C40.1157569,66.5825554 39.8451987,66.313567 39.5118821,65.9672907 C39.175586,65.6165748 38.9154732,65.3294327 38.7249157,65.0962526 C38.5466124,64.8780676 38.3756911,64.6555786 38.2096758,64.4253344 C38.056174,64.2113151 37.9035999,63.9914575 37.7555543,63.7711251 C37.6181938,63.5684053 37.4809662,63.3699524 37.3438788,63.1757688 C37.1654681,62.9230511 36.9582922,62.5892555 36.7133443,62.1637476 C36.4703444,61.7416238 36.2426404,61.3073444 36.0278705,60.8560621 C35.8066729,60.3872267 35.615364,59.9075164 35.454031,59.4172321 C35.2903826,58.9199112 35.1649889,58.428787 35.0777929,57.9403548 C34.9895892,57.439501 34.946065,56.915755 34.946065,56.3693458 L34.946065,54.5846531 C34.946065,54.2989798 34.9623005,53.9300914 34.9938615,53.473631 C35.0228191,53.0372928 35.0482814,52.6869435 35.0710773,52.4132863 C35.0961571,52.1290052 35.1387174,51.7727366 35.1989118,51.3394834 C35.2605356,50.8970938 35.3409381,50.4361353 35.4401398,49.9556584 C35.5367691,49.4887513 35.6374594,49.0458977 35.7425593,48.6259838 C35.8501423,48.1972972 35.9769133,47.7536933 36.1227832,47.2949818 C36.2650813,46.8475021 36.3790099,46.5059699 36.4647608,46.2705811 C36.55186,46.0278133 36.6766384,45.707734 36.8402401,45.3062337 C37.0051209,44.9004717 37.1781713,44.4990759 37.3593916,44.102059 C37.5551003,43.6733011 37.775525,43.2516899 38.0205089,42.8373783 C38.2587468,42.4344753 38.5043499,42.0539552 38.7600234,41.6923996 C39.0284271,41.3148095 39.3262503,40.9470221 39.6505849,40.5918543 C39.9686365,40.2420791 40.3133449,39.8995229 40.6868803,39.5619108 C41.0457837,39.2386824 41.416409,38.9270299 41.8038632,38.6229666 C42.1747959,38.3339629 42.5669783,38.041436 42.9804534,37.7452777 C43.3846104,37.4557935 43.6954965,37.236794 43.9130355,37.0884419 C44.1489437,36.9266293 44.3935361,36.7689863 44.6486484,36.6143399 C44.911117,36.4556412 45.2517681,36.2679802 45.681484,36.0443082 C46.1360232,35.8089423 46.6234215,35.5893414 47.1473763,35.3834914 C47.6493442,35.1874424 48.1421595,35.0144202 48.626011,34.8645778 C49.1353487,34.7068426 49.6330155,34.5818486 50.1204924,34.4900243 C50.6076063,34.3985347 51.1115329,34.3342045 51.6323718,34.2966136 C52.125455,34.2611211 52.6086263,34.2433028 53.0818753,34.2433028 L58.3125388,34.2433028 C58.7527284,34.2433028 59.1940717,34.2494215 59.6367267,34.2616608 C60.0649967,34.2735356 60.4685509,34.2865076 60.8535067,34.300818 C61.263518,34.3172224 61.6553566,34.343181 62.0285591,34.3788085 C62.3920547,34.4133865 62.7520335,34.4549191 63.1094872,34.5035551 C63.4847346,34.554797 63.8311541,34.6137431 64.1516998,34.6815003 C64.4932102,34.7540104 64.8644119,34.8561529 65.2677508,34.9868547 C65.6632671,35.114577 66.0174025,35.2439528 66.3386091,35.3794513 C66.6607608,35.5166673 66.9830854,35.6750927 67.3059011,35.8543578 C67.7857786,36.1208419 68.2292436,36.5076696 68.6831005,37.0189585 C68.9811362,37.3547084 69.1153323,37.760248 69.0954983,38.1578396 C69.5242894,38.3011702 69.9037843,38.4556575 70.2673906,38.6313594 Z"/><path d="M37.41499,96.2496085 C37.2071285,97.1734642 36.2040278,97.7711874 35.1745019,97.5846607 C34.144976,97.3981341 33.4788854,96.4979913 33.686747,95.5741357 C33.8013274,95.0648746 33.9234139,94.6310096 34.05694,94.2675996 C34.1689807,93.9615574 34.2765463,93.6775296 34.3821595,93.4092328 C34.484866,93.151391 34.5882532,92.8977677 34.6949121,92.642198 C34.8013806,92.3900154 34.9172933,92.1238906 35.0426784,91.8437047 C35.1674199,91.5649571 35.3033485,91.2684929 35.4492363,90.9569027 C35.5937095,90.6468361 35.7423347,90.3320389 35.8938883,90.0150725 C36.0561816,89.6741004 36.2304318,89.3330972 36.4177224,88.9900121 C36.5960344,88.6644742 36.7774818,88.3426904 36.9644691,88.0205378 C37.1555176,87.6935541 37.3541459,87.3699954 37.5588884,87.052139 C37.7735149,86.7177523 38.0000914,86.3909023 38.234086,86.0777042 C38.4741302,85.7533983 38.7336778,85.4305441 39.015296,85.1059769 C39.2928683,84.7875745 39.5811031,84.4789574 39.8827356,84.1774243 C40.1873828,83.8742012 40.5075182,83.5797722 40.8401703,83.2966069 C41.1701486,83.0145422 41.5082679,82.743929 41.8539607,82.4852248 C42.1929884,82.2313186 42.5492604,81.9777207 42.9195228,81.7265605 C43.2951137,81.4706384 43.6651373,81.2314975 44.0297402,81.0091533 C44.387678,80.7908735 44.7592428,80.5742303 45.140659,80.361294 C45.5459658,80.1338295 45.9800591,79.9111523 46.4393526,79.6946616 C46.8999718,79.4763802 47.3513642,79.279686 47.7894636,79.1063875 C48.2185743,78.9354998 48.6789278,78.7645997 49.1747302,78.5920868 C49.6805006,78.4172587 50.1762493,78.2631551 50.6679449,78.1283116 C51.1522306,77.9970084 51.6331422,77.8822776 52.1165592,77.7829972 C52.5906956,77.687035 53.0861246,77.6013401 53.5977069,77.5265348 C54.1106677,77.4501962 54.5200908,77.3973788 54.8275032,77.3684837 C55.1506646,77.3368252 55.473572,77.3171694 55.8046143,77.3093691 C56.0821613,77.3039311 56.4831252,77.298015 57.0092262,77.2915772 C57.5384911,77.2851007 57.9388859,77.2818492 58.2135221,77.2818492 C58.5117303,77.2818492 58.8104743,77.289046 59.1008486,77.3030237 C59.4916143,77.320167 59.9661065,77.3873971 60.5570123,77.502013 C61.1224204,77.6114232 61.6727349,77.745282 62.2022347,77.9020784 C62.7186558,78.0534454 63.1274353,78.1852629 63.437399,78.3019086 C63.727727,78.4106614 64.0135991,78.5260701 64.2983534,78.6495988 C64.5627257,78.7648603 64.8189024,78.8798017 65.063442,78.9928507 C65.3256802,79.113468 65.5874246,79.2409401 65.8486791,79.375242 C66.0921022,79.5003775 66.4401943,79.6824998 66.8982758,79.9243698 C67.3582892,80.1683453 67.7009069,80.3530354 67.9412459,80.4869825 C68.16366,80.6126883 68.388923,80.7421253 68.6170441,80.8752948 C68.8629671,81.0188565 69.1027004,81.1662364 69.3362174,81.317445 C69.5544808,81.4587764 69.7818836,81.6090505 70.0185056,81.7683019 C70.276957,81.9422449 70.521611,82.1173926 70.7524737,82.2939136 C70.9570566,82.4503407 71.1686421,82.6136276 71.3833294,82.7807428 C71.6561781,82.9919541 71.9868688,83.283848 72.3928395,83.6683263 C72.7955845,84.0509929 73.0930034,84.3530661 73.3063651,84.6017383 C73.4762271,84.8023006 73.6456911,85.0092534 73.8214484,85.231061 C74.0064161,85.4674606 74.2407785,85.7962839 74.5342181,86.2290486 C74.8436374,86.6865849 75.1202786,87.1521991 75.3638358,87.6257428 C75.5915779,88.0685372 75.8014442,88.5072052 75.994966,88.9453893 C76.1860708,89.3809735 76.3528971,89.7943851 76.4969776,90.1905088 C76.6364435,90.577444 76.7632703,90.963706 76.8764233,91.3459174 C76.9879652,91.7195989 77.0886784,92.0777558 77.1775214,92.4166043 C77.2637026,92.7418375 77.3427622,93.0388531 77.4146908,93.3076179 C77.4825485,93.5611718 77.5488164,93.794081 77.6111685,93.998983 C77.6798397,94.2208253 77.7556523,94.4589346 77.8365749,94.7070842 C77.9085305,94.9246767 77.9891164,95.1367701 78.0783159,95.3434773 L78.2400524,95.7182787 C78.6193214,96.5971812 78.132794,97.5855732 77.153363,97.9259142 C76.1739321,98.2662551 75.0724881,97.8296648 74.6932191,96.9507623 L74.5314827,96.5759609 C74.4050335,96.2829329 74.2912987,95.9835951 74.1882508,95.671938 C74.1005611,95.403083 74.0199692,95.1499632 73.9442813,94.9053946 C73.8689904,94.6580453 73.7930724,94.3912193 73.7163746,94.1046338 C73.6437475,93.8332593 73.5640328,93.5337824 73.4761885,93.2022525 C73.3954411,92.8942995 73.3042034,92.5698393 73.2014663,92.2256415 C73.1047104,91.8988286 72.9969305,91.5705756 72.8796693,91.2452253 C72.7614983,90.9203513 72.6202552,90.5703376 72.4574816,90.1993163 C72.2915826,89.8236878 72.1092529,89.4425775 71.9104372,89.056024 C71.7274368,88.7002199 71.5182762,88.3481822 71.2838075,88.0014725 C71.0310432,87.6286978 70.8364782,87.3557123 70.7152996,87.2007842 C70.5692155,87.0164696 70.4235008,86.83852 70.2855568,86.675587 C70.1739973,86.5455945 69.950068,86.318161 69.6297936,86.0138503 C69.3061178,85.7073126 69.057401,85.4877754 68.8950315,85.3620774 C68.6847124,85.1983706 68.481589,85.0416142 68.2856817,84.8918206 C68.1160541,84.7621209 67.9329655,84.6310478 67.7364221,84.4987701 C67.5180493,84.3518008 67.3094153,84.2139297 67.1106001,84.0851914 C66.9270384,83.9663303 66.7378444,83.8500202 66.5429911,83.7362713 C66.330336,83.6121304 66.1207471,83.4916998 65.9246138,83.3808057 C65.7232755,83.2686297 65.4011742,83.094999 64.9662537,82.8643282 C64.5229874,82.6302843 64.1862175,82.4540858 63.9580573,82.3367965 C63.7477286,82.2286738 63.5378899,82.1264803 63.3250807,82.028594 C63.103871,81.9263339 62.8742459,81.8233056 62.6396051,81.7210029 C62.420962,81.6261566 62.1985195,81.5363549 61.9693667,81.4505149 C61.7679635,81.3747244 61.4480403,81.27156 61.0158446,81.144872 C60.6099981,81.0246983 60.189894,80.922512 59.7543516,80.8382314 C59.3484961,80.7595091 59.0575542,80.718286 58.9062529,80.7116297 C58.6746699,80.7004968 58.4437714,80.6949344 58.2135221,80.6949344 C57.9597007,80.6949344 57.5745184,80.6980625 57.0610869,80.7043452 C56.5444913,80.7106666 56.1527689,80.7164464 55.8961554,80.7214571 C55.6783757,80.7265999 55.4597918,80.7399054 55.2321131,80.762194 C55.0050133,80.7835519 54.6644057,80.8274918 54.2147219,80.8944068 C53.7718091,80.9591768 53.351324,81.0319086 52.9592757,81.1112479 C52.5671003,81.1917969 52.170014,81.2865296 51.7738227,81.3939389 C51.375781,81.5031059 50.9650946,81.6307679 50.5458543,81.7756809 C50.1087718,81.9277664 49.7041611,82.0779727 49.3279876,82.2277731 C48.9694102,82.3696199 48.5984941,82.5312465 48.2117771,82.714502 C47.8311343,82.8939241 47.4796506,83.074225 47.1536559,83.2571727 C46.8113379,83.4482863 46.4826373,83.6399373 46.1675619,83.8320785 C45.8591516,84.020155 45.5431282,84.2243963 45.2163739,84.447037 C44.8908202,84.6678742 44.5823732,84.8874298 44.290506,85.1060163 C44.0087486,85.3168735 43.7330988,85.5374894 43.4606647,85.7703604 C43.1966282,85.9951217 42.9456503,86.2259464 42.710389,86.4601019 C42.4689474,86.7014688 42.235834,86.9510666 42.0136993,87.2058694 C41.7926139,87.4606779 41.5888725,87.714114 41.3978573,87.9721524 C41.2074262,88.2270643 41.0264031,88.4882007 40.8533016,88.7578878 C40.6732288,89.0374487 40.499804,89.3199518 40.3354203,89.6012845 C40.1645406,89.8956985 39.9964477,90.193799 39.832265,90.493538 C39.6748185,90.7819569 39.5279655,91.0693443 39.3904443,91.3582654 C39.2422619,91.6681866 39.0982211,91.9732738 38.9570593,92.2762269 C38.8174689,92.5743734 38.6891687,92.8541996 38.5721941,93.1155914 C38.4558632,93.3755448 38.3490181,93.6208511 38.2542728,93.8452303 C38.1569156,94.0785448 38.0600578,94.3161505 37.9661098,94.5519683 C37.8726267,94.7894824 37.7740228,95.049847 37.6697764,95.3345954 C37.5882924,95.5563675 37.5018396,95.8635993 37.41499,96.2496085 Z"/><path d="M55.744126,53.1785199 C56.0654536,53.2254601 56.3878857,53.2762897 56.711421,53.3310053 C57.0349459,53.3857192 57.3509004,53.4427597 57.6593033,53.502143 C57.9209982,53.5525326 58.167577,53.5944327 58.398745,53.6279209 C58.680079,53.6686765 58.9824978,53.7164346 59.3145844,53.7726134 L59.7749112,53.8523584 C60.8061702,54.0310091 61.4807808,54.926028 61.281696,55.8514389 C61.0826113,56.7768498 60.0852205,57.3822186 59.0539615,57.2035678 L58.6019055,57.1252386 C58.3095824,57.0758015 58.0397029,57.033182 57.7925794,56.9973824 C57.4952899,56.9543154 57.1849739,56.9015848 56.8613369,56.8392682 C56.5844078,56.7859452 56.299627,56.7345326 56.007013,56.6850463 C55.7144095,56.6355618 55.4230725,56.5896342 55.1341502,56.5474275 C54.8978906,56.5130475 54.6742114,56.4917711 54.4553265,56.4827913 C54.2018794,56.4714668 53.936558,56.4657641 53.6594624,56.4657641 C53.3389503,56.4657641 53.0225042,56.4629964 52.7026076,56.4573099 C51.0821729,56.422825 49.9162254,55.0301969 50.8409774,53.5933607 C50.9636801,53.4016902 51.0877104,53.2041075 51.2095183,53.00639 C51.3297671,52.8093864 51.4608561,52.5866326 51.6052792,52.3336241 C51.7394515,52.1004066 51.8525581,51.8904282 51.9426352,51.7083458 C52.0413688,51.5075202 52.1405328,51.2969203 52.2384244,51.0802506 C52.344601,50.8436597 52.4519625,50.6054809 52.5616297,50.3632441 C52.6480513,50.1732008 52.7296555,49.9673813 52.80607,49.7458432 C52.9409368,49.3544348 52.9409368,49.3544348 53.0626639,48.9994931 C53.1284985,48.8072713 53.1963232,48.5784625 53.2666359,48.3089132 C53.3948827,47.8245315 53.6470389,47.3097378 54.0173067,46.7317088 C54.540729,45.9145889 55.7032189,45.6329482 56.6138007,46.1026465 C57.5243824,46.5723449 57.8382372,47.6155172 57.3148149,48.4326371 C57.1115997,48.7498785 56.9976271,48.9825612 56.9685659,49.092282 C56.881008,49.4279947 56.7912433,49.730819 56.6983036,50.0021815 C56.5753525,50.3606916 56.5753525,50.3606916 56.4394737,50.755037 C56.3310465,51.0693852 56.2124056,51.3686173 56.0842992,51.6503209 C55.9771971,51.8868974 55.8712798,52.1218722 55.7648996,52.3589046 C55.6511601,52.6106656 55.5370453,52.8530172 55.4207457,53.0895616 C55.4135285,53.1041513 55.4062388,53.1188063 55.3988769,53.133526 C55.5130546,53.1466389 55.6281259,53.1616398 55.744126,53.1785199 Z"/><path d="M52.0200652,64.3730665 C50.9927606,64.1769256 50.3371561,63.2706049 50.5557316,62.3487425 C50.774307,61.4268801 51.7842923,60.8385667 52.8115969,61.0347076 C53.3910814,61.1453472 53.8067587,61.2177672 54.0391565,61.2497148 C54.3620538,61.2939147 54.7197063,61.354876 55.1141166,61.4324815 C55.4933537,61.5071015 55.8201014,61.5763953 56.0943561,61.6405472 C56.3666814,61.7039461 56.6450878,61.7734392 56.9371359,61.8510184 C57.2054419,61.9233565 57.4802065,61.9983504 57.7614373,62.0760013 C58.0640563,62.1595577 58.3567963,62.2463455 58.6444002,62.3379301 C58.9135262,62.4243394 59.1756339,62.5108771 59.4231703,62.5950008 C59.6424815,62.6685624 59.8940263,62.747372 60.1833818,62.8329286 L60.6419313,62.97009 C61.6383333,63.2681338 62.1768289,64.234583 61.8446949,65.1287146 C61.5125609,66.0228462 60.4355697,66.5060708 59.4391676,66.208027 L58.9869226,66.0727404 C58.6585743,65.9756669 58.3603337,65.8822273 58.0839041,65.7894906 C57.8508381,65.7103001 57.6105557,65.6309682 57.3677772,65.5530121 C57.1364379,65.4793495 56.8947959,65.4077106 56.6428899,65.3381566 C56.3695958,65.2626971 56.1028691,65.189897 55.8502225,65.1217657 C55.6063081,65.0569854 55.3692906,64.9978233 55.1371061,64.9437682 C54.9134601,64.8914554 54.633548,64.8320941 54.2994859,64.7663629 C53.980597,64.7036172 53.7019676,64.6561253 53.464408,64.6236065 C53.1411035,64.5791625 52.6657492,64.4963455 52.0200652,64.3730665 Z"/><path d="M46.0177903,50.6111216 C44.9184109,50.6111216 44.0271878,49.8113734 44.0271878,48.8248339 C44.0271878,47.8382945 44.9184109,47.0385463 46.0177903,47.0385463 C47.1171696,47.0385463 48.0083927,47.8382945 48.0083927,48.8248339 C48.0083927,49.8113734 47.1171696,50.6111216 46.0177903,50.6111216 Z"/><path d="M65.477339,51.7743255 C64.3779597,51.7743255 63.4867366,50.9745773 63.4867366,49.9880379 C63.4867366,49.0014985 64.3779597,48.2017503 65.477339,48.2017503 C66.5767184,48.2017503 67.4679415,49.0014985 67.4679415,49.9880379 C67.4679415,50.9745773 66.5767184,51.7743255 65.477339,51.7743255 Z"/><path d="M31.1992495,31.1161459 C31.5479845,31.1888909 31.8866447,31.280061 32.224887,31.3931966 C32.5476918,31.503025 32.858653,31.628733 33.1537326,31.7686796 C33.2418485,31.8102535 33.3392668,31.8428255 33.4478209,31.8660825 C33.5536785,31.8886592 33.6643074,31.8990408 33.7755455,31.8969412 C34.0212235,31.8913363 34.2701007,31.8796312 34.5221969,31.8617964 C34.6068533,31.8558072 34.8587732,31.7973601 35.225554,31.6792678 C35.2956984,31.488397 35.3552711,31.3091441 35.4143067,31.1397989 C35.4830208,30.9405854 35.553949,30.7168526 35.6272497,30.4674916 C35.720432,30.1517398 35.8226897,29.8549371 35.9346417,29.5767367 C36.0484798,29.2938493 36.1798302,29.0125274 36.3315552,28.7270329 C36.5028869,28.4077138 36.7091122,28.0973402 36.9524417,27.7916588 C37.1833713,27.5034622 37.4364176,27.230425 37.7182831,26.9662849 C37.9718263,26.7312233 38.2505758,26.4953251 38.5582729,26.2551247 C38.8340709,26.0409291 39.0778763,25.8557204 39.2949026,25.6957559 C39.5184533,25.5319479 39.7565951,25.3659337 40.0056504,25.200049 C40.230583,25.0494493 40.4585183,24.8956518 40.6931299,24.7361649 C40.9121733,24.5880034 41.1241729,24.4396556 41.3282146,24.2918061 C41.5403102,24.1379254 41.7592319,23.9754847 41.9806805,23.8077314 C42.1933451,23.6456639 42.4061154,23.4754125 42.618716,23.2971592 C42.8406918,23.1109795 43.0447074,22.9348688 43.2266245,22.7726002 C43.4045815,22.6129087 43.5796318,22.447782 43.7556701,22.2733487 C43.9272256,22.1043823 44.0828908,21.9428829 44.2233739,21.788294 C44.3475595,21.6518213 44.464076,21.510124 44.5690397,21.3684719 C44.7048089,21.1836905 44.8413213,20.9940939 44.9785664,20.7996869 C45.096447,20.6327097 45.216092,20.4478286 45.3418708,20.2371916 C45.4754646,20.0162524 45.6095099,19.7856195 45.7425454,19.5478498 C45.8860043,19.2903811 46.0412637,19.0133416 46.2071183,18.718872 C46.3605563,18.4454748 46.5066926,18.1718192 46.6466183,17.8957821 C46.8004031,17.5934956 46.9548953,17.2964985 47.1087864,17.0072637 C47.2563348,16.7287948 47.3973477,16.4604893 47.5318186,16.2023628 C47.661543,15.9533478 47.7909217,15.6968138 47.9185489,15.4356176 C48.0443029,15.1769692 48.1570929,14.9348513 48.2558274,14.7118948 C48.3482512,14.5022726 48.4388849,14.2744532 48.5274187,14.0286358 C48.6079432,13.8050564 48.6697717,13.5988606 48.7118888,13.4176719 C48.7437655,13.2776274 48.7587296,13.1508989 48.7587296,13.0367015 C48.7587296,12.8394543 48.7521255,12.6393301 48.7388766,12.4363023 C48.7347306,12.3727674 48.7086093,12.2669639 48.6531365,12.1269489 C48.6297583,12.0683384 48.5962061,12.0201249 48.5478245,11.975191 C48.4044568,11.8434006 48.2830767,11.752815 48.1911146,11.7010777 C48.0160259,11.6025739 47.8274598,11.5080629 47.6252379,11.4177481 C47.408966,11.3211583 47.1745224,11.2259431 46.9159607,11.1301169 C46.6689634,11.0376898 46.3954648,10.9467402 46.0902323,10.85606 C45.7718593,10.7604999 45.4426807,10.6686222 45.1027111,10.5804673 C44.7424978,10.4870632 44.3220211,10.3797088 43.8373977,10.257427 C43.368563,10.1381048 42.9058303,10.0260728 42.4492104,9.92132401 C41.9896429,9.81589906 41.6280035,9.73592236 41.3750812,9.68353197 C41.0861524,9.62480768 40.8036454,9.5648971 40.535364,9.50550478 C40.2794286,9.44989052 40.0126743,9.3936581 39.7367956,9.33715971 C39.47263,9.28328432 39.2202581,9.23604249 38.9782881,9.19514667 C38.5752597,9.12665215 38.5752597,9.12665215 38.14275,9.05286461 C37.8437583,9.00181095 37.543604,8.94913632 37.2480677,8.89587444 C36.9522856,8.84343198 36.6470579,8.78886612 36.3337369,8.73242028 C36.005062,8.67343233 35.70434,8.61632588 35.43115,8.56096944 C35.1854818,8.51118976 34.8991686,8.4558045 34.572769,8.39495597 C34.2276885,8.33062487 33.9043022,8.26832333 33.6024899,8.20801607 C33.3037836,8.14832945 33.011539,8.08860408 32.7314875,8.03002834 C32.465896,7.97526287 32.1857853,7.9203096 31.8967092,7.86621753 C31.6037867,7.81221979 31.3060638,7.76021444 31.002287,7.70999876 C30.7274743,7.66439992 30.4710835,7.6290391 30.2256848,7.60289738 C29.7849207,7.55438468 29.7849207,7.55438468 29.2537322,7.49626094 C28.9265624,7.46050329 28.6528357,7.43808999 28.4359556,7.42857521 C28.2043569,7.4183694 27.920102,7.41308527 27.5854732,7.41308527 L23.8264337,7.41308527 C23.5261724,7.41308527 23.2349665,7.41563222 22.960663,7.42056055 C22.5249634,7.43010311 22.5249634,7.43010311 22.0968455,7.43980912 C21.8266601,7.44498976 21.5486696,7.45173186 21.2628891,7.46003786 C20.9960511,7.46779333 20.6048251,7.48701621 20.0952109,7.517708 C19.5976844,7.54767179 19.1335259,7.58589807 18.7078289,7.63169408 C18.2665419,7.68018307 17.8360938,7.73464369 17.4221902,7.79422196 C17.0183895,7.85348104 16.6505382,7.91738593 16.3192746,7.9855481 C15.970928,8.05722534 15.6382878,8.13160194 15.315487,8.2100446 C14.9912993,8.28782347 14.7056376,8.35991951 14.4495883,8.42861979 C14.2353389,8.48501575 13.9824391,8.56290123 13.6912502,8.66297284 C13.4090589,8.75961081 13.1737809,8.85027975 12.991244,8.9313817 C12.9432066,8.95282998 12.8868748,8.98932918 12.8239453,9.04426943 C12.8119784,9.10581533 12.8034726,9.19678065 12.8034726,9.31580057 C12.8034726,9.6093482 12.8099109,9.87270582 12.8221719,10.0985168 C12.835593,10.3273435 12.8580224,10.5693394 12.8896787,10.8250047 C12.9239153,11.1025315 12.9652261,11.409909 13.0128622,11.7417657 C13.0640247,12.0898367 13.1181394,12.4617778 13.1752094,12.8576065 C13.2315711,13.2485223 13.2914848,13.6538623 13.35495,14.073613 C13.4175944,14.4879354 13.4694909,14.8154772 13.5112529,15.0601794 C13.5561979,15.3298268 13.5942629,15.5903541 13.6244262,15.8341214 C13.6521453,16.0490332 13.6832106,16.2650782 13.7176264,16.4822581 C13.7561894,16.7256085 13.7939671,16.9834725 13.8309986,17.2559636 C13.8640646,17.4992747 13.9187325,17.8498268 13.9938385,18.2991787 C14.0728338,18.7636488 14.13347,19.1165377 14.1770276,19.3653065 C14.2161262,19.5958684 14.278127,19.9307211 14.3632799,20.370383 C14.4459629,20.8031959 14.5142549,21.1407601 14.5657718,21.372939 C14.6210502,21.6169128 14.6785313,21.8571196 14.7368852,22.0883515 C14.8020763,22.3429346 14.8642994,22.5906751 14.9249241,22.8371952 C14.9756135,23.0466233 15.0334354,23.2613121 15.0979019,23.4794378 C15.1654237,23.7069039 15.2350095,23.9284297 15.3036305,24.1350417 C15.3757846,24.3479261 15.4850944,24.6508371 15.6289653,25.0361312 C15.7599634,25.3841966 15.8967588,25.6964993 16.0394446,25.9748137 C16.182625,26.2551434 16.3276024,26.5065172 16.4718282,26.7261997 C16.6107552,26.9369863 16.7584361,27.1319208 16.9154661,27.3122893 C17.0689758,27.4888354 17.2132817,27.6345638 17.345973,27.7494083 C17.4899505,27.8740211 17.6493188,27.995658 17.8196328,28.1108698 C17.9993003,28.2315871 18.1750904,28.3368842 18.3369468,28.4220114 C18.5474386,28.5311672 18.7574412,28.6343875 18.9602363,28.7285934 C19.1157031,28.8001009 19.3387749,28.8841747 19.623709,28.9759168 C19.9438693,29.0790009 20.2200864,29.1602226 20.4497545,29.2193629 C20.6876972,29.280634 20.9277584,29.3358821 21.1699809,29.3851134 C21.4447526,29.4409603 21.7141676,29.495212 21.9720732,29.5466514 C22.2050676,29.5923876 22.4560912,29.6353615 22.7188553,29.6745141 C23.0141712,29.71763 23.2957906,29.7580853 23.5636899,29.7958778 C23.8095815,29.8305656 24.047936,29.8598196 24.270096,29.8828049 C24.5179304,29.9074017 24.8274187,29.9358994 25.1911953,29.9676322 C25.5650085,29.9990801 25.9096184,30.0268123 26.2179624,30.0503072 C26.5753711,30.0763438 26.9026345,30.1081734 27.1936312,30.1453194 C27.4704872,30.1796659 27.7438555,30.217494 28.0122685,30.2585897 C28.3152064,30.304752 28.6327503,30.365768 28.9566661,30.4393608 C29.4437647,30.5477334 29.8942912,30.7252483 30.292641,30.9694122 C30.5901097,31.0033892 30.891873,31.0523073 31.1992495,31.1161459 Z M12.8343633,8.99946256 C12.8354926,8.9963983 12.8366299,8.99321728 12.8377681,8.98992084 C12.8375624,8.99052505 12.8364275,8.99370563 12.8343633,8.99946256 Z M34.8211281,35.2643239 C34.502111,35.2868931 34.1857992,35.3017697 33.8641611,35.3090924 C33.4241864,35.3174571 32.9909542,35.2768019 32.56648,35.1862717 C32.1508206,35.0972231 31.7553278,34.9649889 31.3801229,34.7879598 C31.2214243,34.7126966 31.053693,34.6448901 30.8866242,34.5880184 C30.7123296,34.5297354 30.5296415,34.4805543 30.3398546,34.4409645 C30.1369283,34.3988196 29.943075,34.3683967 29.7583191,34.3492962 C29.1794047,34.2894466 28.6377264,34.1000802 28.1535637,33.7917345 C28.1330477,33.7785702 28.0999521,33.765178 28.0323809,33.7501235 C27.7941714,33.6960183 27.5749636,33.6538975 27.374045,33.6232806 C27.143904,33.5880451 26.9101426,33.5556977 26.6654585,33.5253295 C26.4471476,33.4974716 26.1950035,33.4729481 25.9032604,33.4516836 C25.5763436,33.4267857 25.220688,33.3981647 24.8297442,33.3652656 C24.4439981,33.3316269 24.1183894,33.3016449 23.8433861,33.2743338 C23.5599059,33.2450269 23.2698028,33.2094217 22.9730183,33.1675544 C22.6982415,33.1287917 22.4099324,33.0873754 22.1020204,33.0424116 C21.7712812,32.9931417 21.4571158,32.9393583 21.1531335,32.8796778 C20.8839915,32.8260072 20.6095453,32.7707424 20.3297921,32.7138831 C20.0174897,32.6504081 19.7077654,32.5791276 19.4006622,32.5000475 C19.0852844,32.4188366 18.7323289,32.31505 18.33919,32.1884685 C17.9108249,32.050545 17.5414555,31.9113329 17.2186247,31.7628306 C16.9565509,31.6411071 16.6949704,31.5125353 16.4240932,31.3720302 C16.126522,31.2155892 15.8319137,31.0391207 15.5351139,30.839692 C15.2387288,30.6392165 14.9620603,30.428051 14.7055476,30.2060389 C14.4377486,29.9742585 14.1756399,29.709566 13.9175238,29.4127151 C13.6591316,29.1159205 13.419356,28.7994238 13.1964353,28.4611931 C12.9821003,28.1347284 12.7775374,27.7800404 12.5829757,27.3991083 C12.383281,27.0096014 12.1977885,26.5861238 12.0240193,26.1243994 C11.8683674,25.7075714 11.7489949,25.3767756 11.6617367,25.1192398 C11.5793308,24.8712302 11.4996214,24.6174758 11.4220591,24.3561819 C11.3424984,24.0869891 11.2711682,23.8221447 11.2094775,23.5672184 C11.1526151,23.3360388 11.0927952,23.0978666 11.0286957,22.847509 C10.9627754,22.5863377 10.8993985,22.3214929 10.8370622,22.0463006 C10.7763267,21.7726568 10.7024327,21.4074018 10.6152406,20.950959 C10.5266527,20.493589 10.4606862,20.1373185 10.4182715,19.8870648 C10.3750891,19.6405707 10.3136824,19.2831975 10.2331749,18.8097985 C10.152605,18.3277971 10.0935242,17.9489485 10.0554972,17.6691325 C10.0214358,17.4184965 9.98693572,17.1830049 9.95203597,16.9627711 C9.91298907,16.7163668 9.87770096,16.4709542 9.84519631,16.2187842 C9.81946489,16.0109711 9.78762183,15.7930285 9.75063208,15.5710365 C9.70607547,15.3100342 9.65133263,14.9645283 9.58600971,14.5324906 C9.52150756,14.1058812 9.4605633,13.6935693 9.40317624,13.2955415 C9.34649751,12.9024265 9.292788,12.5332709 9.24130909,12.182988 C9.19015657,11.8266991 9.14615581,11.4993065 9.10938432,11.2012299 C9.06986278,10.8820443 9.04134231,10.5743315 9.02358648,10.2713578 C9.00778026,9.98058846 9,9.66233934 9,9.31580057 C9,8.83697246 9.06258792,8.39702181 9.20267746,7.9856569 C9.37556324,7.48550135 9.68450251,7.03879093 10.1096086,6.65308834 C10.4663277,6.33121422 10.8626395,6.06955573 11.3002281,5.87417971 C11.6025616,5.73984565 11.9466912,5.60722864 12.333046,5.47492058 C12.7122281,5.34460711 13.0600637,5.23748423 13.3693326,5.15610178 C13.6537894,5.0797516 13.9747875,4.99873727 14.3271462,4.9142089 C14.6927835,4.82534621 15.0734426,4.74023284 15.4692021,4.65879972 C15.8820447,4.57385152 16.3282076,4.49634196 16.8140202,4.42505532 C17.2807176,4.35786884 17.7578895,4.29749668 18.2502967,4.24339598 C18.7488011,4.18976106 19.2787589,4.14611582 19.8405173,4.11228363 C20.390188,4.07917943 20.8212704,4.05799819 21.1397643,4.04874139 C21.4393158,4.04003514 21.7312537,4.03295477 22.0076802,4.02766925 C22.4305192,4.01806996 22.4305192,4.01806996 22.8764869,4.00831845 C23.1844383,4.00276939 23.5010771,4 23.8264337,4 L27.5854732,4 C27.9783621,4 28.3232798,4.00641181 28.6220949,4.01957967 C28.9388254,4.03347494 29.3013806,4.06316169 29.7135775,4.1082123 C30.2464133,4.16651623 30.2464133,4.16651623 30.6816864,4.21443792 C31.0034374,4.24869361 31.3406726,4.2952043 31.6925905,4.35359737 C32.0204282,4.40779001 32.3435837,4.46423784 32.6675391,4.52396379 C32.9867536,4.58368704 33.2919748,4.64356655 33.5890174,4.70482572 C33.862491,4.76201743 34.1425447,4.81925136 34.4291703,4.87652405 C34.7126898,4.9331761 35.0184761,4.99208693 35.3464088,5.05322127 C35.6930225,5.11783819 36.0003354,5.1772857 36.2689062,5.23170612 C36.509955,5.2805498 36.7803464,5.33189653 37.0810173,5.38585902 C37.3919561,5.44187523 37.6933882,5.49576254 37.9910888,5.54855352 C38.279843,5.60058495 38.5673903,5.65104717 38.8537306,5.69994056 C39.2844076,5.77341541 39.2844076,5.77341541 39.6837911,5.84129132 C39.9718096,5.8899692 40.2704079,5.94586421 40.5813878,6.00928787 C40.8749601,6.06940905 41.1579912,6.12907267 41.4383306,6.19000557 C41.6906896,6.24585818 41.9496739,6.30078037 42.2227991,6.35630702 C42.5168727,6.41720471 42.9052638,6.50309757 43.3912326,6.61457898 C43.8801488,6.72673654 44.3748011,6.84649661 44.871056,6.97280203 C45.3598106,7.09612168 45.7888947,7.20567365 46.1585689,7.30153098 C46.5484868,7.40263754 46.927868,7.5085274 47.2911248,7.61756816 C47.678726,7.7327079 48.0415093,7.85334835 48.3737773,7.97769501 C48.7066142,8.10103432 49.021956,8.229105 49.319923,8.36218081 C49.6319402,8.50153156 49.9291758,8.65050861 50.2114517,8.80931525 C50.5768543,9.01488846 50.9270573,9.27624398 51.2758763,9.59692323 C51.7045419,9.99479008 52.0276393,10.459071 52.2354762,10.9801416 C52.4061529,11.4108998 52.5091838,11.8282233 52.5358447,12.2367788 C52.5534027,12.5058413 52.5622021,12.7724911 52.5622021,13.0367015 C52.5622021,13.3860882 52.5202919,13.7410195 52.436851,14.1075315 C52.3644185,14.4192567 52.2674727,14.7425675 52.1465672,15.0782663 C52.033671,15.3917271 51.9157654,15.688098 51.791494,15.9699469 C51.6756265,16.231598 51.5467005,16.508354 51.4032841,16.8033232 C51.262145,17.09218 51.1201857,17.3736588 50.9773871,17.6477709 C50.8393351,17.9127715 50.6947913,18.1877952 50.5424348,18.4753333 C50.3966803,18.7492804 50.2513973,19.0285737 50.1076679,19.311091 C49.947927,19.6262228 49.7800695,19.9405535 49.6028866,20.2562558 C49.4381977,20.5486594 49.2853876,20.8213286 49.143062,21.0767582 C48.9907687,21.3489526 48.8380725,21.6116753 48.6897402,21.8569382 C48.5263317,22.1306593 48.3604201,22.3870337 48.1915591,22.6262244 C48.0420628,22.8379851 47.8930184,23.0449869 47.7404054,23.25267 C47.562638,23.4926114 47.3722699,23.7241206 47.170216,23.9461654 C46.9852534,24.1497006 46.7842689,24.3582179 46.5710753,24.5681822 C46.3569497,24.78037 46.138619,24.9863234 45.9120895,25.1895913 C45.6975126,25.3810048 45.4654915,25.5812904 45.2156393,25.7908511 C44.9592711,26.0058011 44.7016432,26.211946 44.4384768,26.4124902 C44.19259,26.5987668 43.9529622,26.7765715 43.7186256,26.9465882 C43.4804376,27.1191807 43.2350726,27.2908761 42.9862094,27.4592014 C42.747931,27.6211875 42.5125773,27.7799904 42.276369,27.9381331 C42.0694661,28.0759474 41.8774957,28.2097744 41.7048363,28.3362822 C41.5194619,28.4729249 41.2999783,28.6396574 41.0509932,28.8330216 C40.8265582,29.0082297 40.6266153,29.177436 40.4583964,29.3333567 C40.3065388,29.4756842 40.1673891,29.6258269 40.0439694,29.7798383 C39.9283489,29.9250928 39.8336141,30.0676707 39.7615844,30.2018881 C39.6661295,30.3815193 39.5830162,30.5595285 39.5120126,30.7359722 C39.439123,30.9171029 39.3695727,31.1189721 39.3044543,31.3396253 C39.2185073,31.6320115 39.133031,31.9016343 39.0460246,32.1538543 C38.9746119,32.3587256 38.9025831,32.5795645 38.8286498,32.8207931 C38.7547008,33.059487 38.6845685,33.3008164 38.6199741,33.5384175 C38.5646303,33.7454884 38.5225059,33.9452924 38.4943478,34.1307433 L38.4392508,34.5055447 C38.3018906,35.4399473 37.3464146,36.0975069 36.3051355,35.9742453 C35.749333,35.9084521 35.2814273,35.6334941 34.9868277,35.2493079 C34.9308052,35.2554618 34.8755965,35.2604704 34.8211281,35.2643239 Z"/><path d="M24.8416637,16.9073594 C23.8820811,17.2905345 22.7580318,16.9031069 22.3310292,16.0420155 C21.811011,14.9933492 21.7714444,13.9674269 22.7949336,13.1785843 C23.0520121,12.9802454 23.3403425,12.7867025 23.6603776,12.5961269 C23.9563134,12.4199021 24.2733013,12.2462046 24.6065306,12.0771983 C24.9401385,11.9068078 25.277961,11.7463523 25.6225578,11.5947256 C26.0363959,11.4133296 26.4585613,11.2694592 26.8899261,11.1638901 C27.3420059,11.0536681 27.774919,10.9908022 28.1926553,10.9804374 C28.7370239,10.9669306 29.273037,11.0664095 29.785798,11.2665563 C30.4892331,11.5411293 31.0351086,12.0198434 31.3313698,12.6578972 C31.5158583,13.0571714 31.6207745,13.492604 31.6572313,13.9680144 C31.685716,14.3613702 31.6754994,14.7598226 31.6272065,15.1624291 C31.577825,15.5741112 31.4861231,15.9791194 31.3524481,16.3761121 C31.2485174,16.6847692 31.1402694,16.9928339 31.0270674,17.3020446 C30.9234419,17.5840785 30.8244466,17.8633455 30.7281904,18.1453367 C30.6309418,18.4268769 30.5372215,18.7040984 30.4475865,18.9753051 C30.3576471,19.2484709 30.2778103,19.4968996 30.2053047,19.7293278 C30.1515061,19.8982962 30.1050988,20.084093 30.0652309,20.2943807 C30.0307421,20.4714371 30.0118035,20.6435084 30.0077337,20.8181325 C30.0047208,20.9267296 30.0159494,21.0241319 30.0406718,21.1157512 C30.0416156,21.1192643 30.1237759,21.2153739 30.2871526,21.4040799 C30.929093,22.1500463 30.7755951,23.2217537 29.9443054,23.7978055 C29.1130157,24.3738573 27.9187268,24.2361144 27.2767864,23.490148 L27.0297384,23.2030661 C26.7007575,22.820774 26.4696759,22.3867076 26.3435805,21.9173283 C26.2398794,21.5330364 26.1942337,21.137083 26.2052628,20.7401139 C26.2132184,20.3974419 26.2511542,20.0527657 26.3170728,19.7144628 C26.3782275,19.3917291 26.4550479,19.0841703 26.5453489,18.8006491 C26.6202248,18.5605251 26.7050867,18.2964594 26.8005465,18.0065304 C26.8951956,17.7201491 26.9934262,17.4295863 27.0933507,17.1403323 C27.1956722,16.8405369 27.3028464,16.5381971 27.414231,16.2350488 C27.5173162,15.9534691 27.6164225,15.6714209 27.711552,15.3889019 C27.7769373,15.1947184 27.8214969,14.9979178 27.8455781,14.7971584 C27.8592808,14.6829222 27.8670609,14.5709213 27.869098,14.4620589 C27.6795194,14.5096993 27.4874722,14.5757816 27.2945016,14.6603635 C27.0227303,14.7799479 26.753893,14.9076376 26.4830037,15.0459857 C26.3018304,15.1378774 26.1309716,15.2292358 25.9704725,15.3199429 C25.982381,15.9833883 25.5598656,16.6205711 24.8416637,16.9073594 Z M28.2686823,14.3963715 C28.2548172,14.3909595 28.264642,14.3924517 28.2878896,14.3923583 C28.2840146,14.3926101 28.2733244,14.3931017 28.2621825,14.3937939 C28.2643499,14.3946669 28.2665166,14.3955261 28.2686823,14.3963715 Z M28.2878896,14.3923583 C28.2909602,14.3923459 28.294265,14.3923059 28.2977803,14.3922187 C28.2969991,14.3922381 28.2937022,14.3922846 28.2878896,14.3923583 Z M27.8286364,13.9926844 C27.8254517,13.982805 27.8222788,13.9745406 27.819207,13.9678913 C27.8203467,13.9703458 27.8214994,13.972794 27.8226649,13.9752358 L27.8286364,13.9926844 Z"/><path d="M30.1339222,25.1603114 C31.0473797,24.6951313 32.2081192,24.982527 32.7265064,25.8022275 C33.2448936,26.6219281 32.9246257,27.6635296 32.0111682,28.1287097 L31.3002387,28.4907519 C30.3867811,28.955932 29.2260416,28.6685363 28.7076545,27.8488358 C28.1892673,27.0291352 28.5095351,25.9875337 29.4229927,25.5223536 L30.1339222,25.1603114 Z"/><path d="M45.6213601,45.2457755 C44.7244181,45.7361524 43.5543048,45.4811971 43.0078388,44.676317 C42.4613729,43.8714368 42.7454899,42.8214236 43.6424319,42.3310467 C44.211788,42.0197679 44.6940392,41.7999238 45.1280852,41.6673295 C45.3978148,41.5849313 45.6525545,41.5053089 45.8895198,41.429367 C46.1148054,41.3568207 46.3708273,41.2692524 46.6603239,41.1655444 C46.9749721,41.0534822 47.286757,40.9451967 47.5995563,40.8393839 C47.9312593,40.7279107 48.2674058,40.6247945 48.6079503,40.5300376 C48.964659,40.430783 49.3140646,40.3475471 49.6490752,40.2819921 C49.9840977,40.2151841 50.303105,40.1624512 50.6068469,40.1240616 L50.9854168,40.0762146 C52.0254517,39.9447659 52.9873151,40.5947834 53.1337989,41.5280694 C53.2802826,42.4613554 52.5559164,43.3244934 51.5158815,43.4559421 L51.1373116,43.5037891 C50.9362936,43.5291955 50.7149946,43.565777 50.4668745,43.615242 C50.2333219,43.660953 49.9891014,43.7191315 49.7344108,43.7899995 C49.4635559,43.8653652 49.1965973,43.9472574 48.9373614,44.0343727 C48.6491079,44.1318862 48.3577876,44.2330642 48.0669718,44.3366347 C47.7415035,44.4532332 47.4441854,44.5549263 47.1714781,44.6427412 C46.9135048,44.725418 46.6409718,44.8106019 46.3538067,44.8983264 C46.2309579,44.9358547 45.9738425,45.0530661 45.6213601,45.2457755 Z"/><path d="M64.4465774,48.5290888 C63.4147456,48.7050565 62.4193145,48.097096 62.2232197,47.1711711 C62.027125,46.2452462 62.7046238,45.3519859 63.7364555,45.1760182 C64.2522052,45.0880628 64.6368085,45.0208098 64.878886,44.9763928 C65.1775749,44.9203498 65.4831835,44.8718116 65.7877652,44.8317715 C66.1158712,44.7873533 66.4379492,44.7560214 66.75403,44.7379717 L67.1450412,44.7156431 C68.1932209,44.6557871 69.0970114,45.369767 69.1637138,46.3103619 C69.2304161,47.2509568 68.4347715,48.0619825 67.3865917,48.1218385 L66.9955805,48.1441671 C66.790313,48.1558889 66.5768242,48.1766571 66.3472122,48.2077261 C66.109941,48.2389296 65.8799827,48.2754526 65.6492055,48.3187368 C65.3780526,48.3685072 64.9782637,48.4384155 64.4465774,48.5290888 Z"/></g></g><text x="0" y="115" fill="#000000" font-size="5px" font-weight="bold" font-family="'Helvetica Neue', Helvetica, Arial-Unicode, Arial, Sans-serif">Created by Margaret Hagan</text><text x="0" y="120" fill="#000000" font-size="5px" font-weight="bold" font-family="'Helvetica Neue', Helvetica, Arial-Unicode, Arial, Sans-serif">from the Noun Project</text></svg>